<svg width="34" height="36" viewBox="0 0 34 36" fill="none" xmlns="http://www.w3.org/2000/svg">
<path d="M14.9018 36C14.0982 36 13.4065 35.73 12.8268 35.19C12.247 34.65 11.897 33.99 11.7768 33.21L11.375 30.24C10.9881 30.09 10.6238 29.91 10.2821 29.7C9.94048 29.49 9.60536 29.265 9.27678 29.025L6.50893 30.195C5.76488 30.525 5.02083 30.555 4.27679 30.285C3.53274 30.015 2.95238 29.535 2.53571 28.845L0.4375 25.155C0.0208331 24.465 -0.0982142 23.73 0.0803572 22.95C0.258929 22.17 0.660714 21.525 1.28571 21.015L3.65179 19.215C3.62202 19.005 3.60714 18.8022 3.60714 18.6066V17.3916C3.60714 17.1972 3.62202 16.995 3.65179 16.785L1.28571 14.985C0.660714 14.475 0.258929 13.83 0.0803572 13.05C-0.0982142 12.27 0.0208331 11.535 0.4375 10.845L2.53571 7.155C2.95238 6.465 3.53274 5.985 4.27679 5.715C5.02083 5.445 5.76488 5.475 6.50893 5.805L9.27678 6.975C9.60417 6.735 9.94643 6.51 10.3036 6.3C10.6607 6.09 11.0179 5.91 11.375 5.76L11.7768 2.79C11.8958 2.01 12.2458 1.35 12.8268 0.81C13.4077 0.27 14.0994 0 14.9018 0H19.0982C19.9018 0 20.594 0.27 21.175 0.81C21.756 1.35 22.1054 2.01 22.2232 2.79L22.625 5.76C23.0119 5.91 23.3768 6.09 23.7196 6.3C24.0625 6.51 24.397 6.735 24.7232 6.975L27.4911 5.805C28.2351 5.475 28.9792 5.445 29.7232 5.715C30.4673 5.985 31.0476 6.465 31.4643 7.155L33.5625 10.845C33.9792 11.535 34.0982 12.27 33.9196 13.05C33.7411 13.83 33.3393 14.475 32.7143 14.985L30.3482 16.785C30.378 16.995 30.3929 17.1978 30.3929 17.3934V18.6066C30.3929 18.8022 30.3631 19.005 30.3036 19.215L32.6696 21.015C33.2946 21.525 33.6964 22.17 33.875 22.95C34.0536 23.73 33.9345 24.465 33.5179 25.155L31.375 28.845C30.9583 29.535 30.378 30.015 29.6339 30.285C28.8899 30.555 28.1458 30.525 27.4018 30.195L24.7232 29.025C24.3958 29.265 24.0536 29.49 23.6964 29.7C23.3393 29.91 22.9821 30.09 22.625 30.24L22.2232 33.21C22.1042 33.99 21.7548 34.65 21.175 35.19C20.5952 35.73 19.903 36 19.0982 36H14.9018ZM17.0893 24.3C18.8155 24.3 20.2887 23.685 21.5089 22.455C22.7292 21.225 23.3393 19.74 23.3393 18C23.3393 16.26 22.7292 14.775 21.5089 13.545C20.2887 12.315 18.8155 11.7 17.0893 11.7C15.3333 11.7 13.8524 12.315 12.6464 13.545C11.4405 14.775 10.8381 16.26 10.8393 18C10.8405 19.74 11.4435 21.225 12.6482 22.455C13.853 23.685 15.3333 24.3 17.0893 24.3Z" fill="#00324F"/>
</svg>
